PathFileType	4	(X/Y/Z)	/Users/itak/Documents/Research/Walk-IL/dataset/trc/00181_00008.trc
DataRate	CameraRate	NumFrames	NumMarkers	Units	OrigDataRate	OrigDataStartFrame	OrigNumFrames
100.000000	100.000000	4	53	mm	100.000000	99	794
Frame#	Time	RPSI			LPSI			L3			STRN			T10			C7			CLAV			RBAK			LBAK			LSHO			LUPA			LAEL			LAOL			LWTS			LWPS			LFRA			LIFD			LHPS			LHTS			RSHO			RUPA			RAEL			RAOL			RWTS			RWPS			RFRA			RIFD			RHTS			RHPS			RBHD			LFHD			RFHD			LBHD			LHIP			RHIP			RASI			LASI			LKNE			LTHI			LANK			LTIP			LTOE			LMT1			LMT5			LHEE			RKNE			RTHI			RANK			RTIP			RTOE			RMT1			RMT5			RHEE			
		X1	Y1	Z1	X2	Y2	Z2	X3	Y3	Z3	X4	Y4	Z4	X5	Y5	Z5	X6	Y6	Z6	X7	Y7	Z7	X8	Y8	Z8	X9	Y9	Z9	X10	Y10	Z10	X11	Y11	Z11	X12	Y12	Z12	X13	Y13	Z13	X14	Y14	Z14	X15	Y15	Z15	X16	Y16	Z16	X17	Y17	Z17	X18	Y18	Z18	X19	Y19	Z19	X20	Y20	Z20	X21	Y21	Z21	X22	Y22	Z22	X23	Y23	Z23	X24	Y24	Z24	X25	Y25	Z25	X26	Y26	Z26	X27	Y27	Z27	X28	Y28	Z28	X29	Y29	Z29	X30	Y30	Z30	X31	Y31	Z31	X32	Y32	Z32	X33	Y33	Z33	X34	Y34	Z34	X35	Y35	Z35	X36	Y36	Z36	X37	Y37	Z37	X38	Y38	Z38	X39	Y39	Z39	X40	Y40	Z40	X41	Y41	Z41	X42	Y42	Z42	X43	Y43	Z43	X44	Y44	Z44	X45	Y45	Z45	X46	Y46	Z46	X47	Y47	Z47	X48	Y48	Z48	X49	Y49	Z49	X50	Y50	Z50	X51	Y51	Z51	X52	Y52	Z52	X53	Y53	Z53	

100	0.99	69.61256408691406	1028.4755859375	1402.702270507812	48.02460861206055	1029.290893554688	1282.587524414062	62.37117385864258	1067.290649414062	1347.86181640625	344.487548828125	1249.671752929688	1283.396728515625	46.75605392456055	1236.15771484375	1348.573608398438	144.0545806884766	1492.2919921875	1302.510131835938	329.5326843261719	1366.004638671875	1270.002197265625	80.91122436523438	1335.126708984375	1439.136840820312	111.8573684692383	1465.548706054688	1209.025390625	167.8456878662109	1439.245483398438	1116.530395507812	93.97067260742188	1314.178833007812	1064.727416992188	52.14363098144531	1102.26953125	1063.3173828125	36.09744262695312	1095.521606445312	1152.260986328125	118.1803207397461	851.8609008789062	1065.62841796875	23.84239768981934	849.1563110351562	1062.100830078125	36.85881042480469	991.6142578125	1053.676879882812	100.5092391967773	669.9405517578125	1096.640502929688	30.73160934448242	776.5615844726562	1063.093383789062	101.6459197998047	772.2227783203125	1049.054931640625	243.7649536132812	1475.411865234375	1466.507690429688	234.9637756347656	1417.898559570312	1545.370727539062	212.8783111572266	1137.329711914062	1634.097900390625	180.3727569580078	1119.537719726562	1544.287475585938	334.8025207519531	902.4759521484375	1596.72509765625	275.0363464355469	892.2837524414062	1662.24462890625	239.5921783447266	1064.983276367188	1651.110595703125	335.3793334960938	711.3067016601562	1585.705688476562	357.8594970703125	806.8624267578125	1605.657592773438	298.3717956542969	809.241943359375	1658.728759765625	224.3517150878906	1636.565063476562	1353.590454101562	327.1259765625	1680.37841796875	1165.629272460938	374.2812805175781	1694.601440429688	1285.796020507812	166.1151885986328	1628.380249023438	1228.545776367188	129.0628356933594	969.9752807617188	1144.01611328125	236.9691162109375	979.2771606445312	1502.5234375	312.5751953125	1000.919921875	1437.30712890625	263.3760070800781	999.5687866210938	1184.084228515625	368.3854064941406	521.4183959960938	1103.105834960938	289.1037292480469	643.0928344726562	1095.807495117188	492.325439453125	59.56672286987305	1076.020385742188	421.036865234375	295.8681640625	1076.200439453125	665.0565795898438	163.5812377929688	1000.215087890625	653.9588623046875	139.1390686035156	1062.587890625	560.8751831054688	97.60663604736328	993.0603637695312	484.0111694335938	44.13175201416016	1158.437866210938	135.6001586914062	492.3166198730469	1488.326538085938	248.8878173828125	745.0941162109375	1502.452514648438	-99.7283935546875	52.14067840576172	1514.64306640625	108.737678527832	371.0282287597656	1476.966186523438	120.7392196655273	46.30598831176758	1482.86474609375	67.43648529052734	45.07218170166016	1436.388427734375	10.28780937194824	40.22637557983398	1553.36328125	-152.7333831787109	56.96778869628906	1446.356079101562	
101	1	76.95740509033203	1027.125244140625	1398.801025390625	55.47131729125977	1027.647827148438	1278.731811523438	69.63803100585938	1065.785766601562	1343.998291015625	351.3297424316406	1248.5498046875	1278.497680664062	53.72568130493164	1234.5556640625	1344.699462890625	150.3148040771484	1490.814331054688	1297.6826171875	336.0239868164062	1364.788452148438	1264.823852539062	88.08017730712891	1333.866943359375	1434.967041015625	117.8649063110352	1463.758422851562	1204.350463867188	173.5525665283203	1437.327514648438	1111.723999023438	99.63831329345703	1311.9345703125	1060.649169921875	57.91500473022461	1100.2041015625	1059.832763671875	42.57797241210938	1093.476440429688	1149.001098632812	122.5424041748047	849.3876342773438	1062.148803710938	28.28131103515625	847.3504028320312	1059.656982421875	42.05216979980469	989.6273193359375	1050.564575195312	103.7285385131836	667.6041259765625	1093.620483398438	34.52061462402344	774.69970703125	1060.449584960938	105.2186431884766	769.8024291992188	1045.868041992188	250.7571868896484	1474.502563476562	1461.419921875	242.4112091064453	1417.10595703125	1540.471923828125	221.2895812988281	1136.355102539062	1629.5810546875	188.6380310058594	1118.457153320312	1539.92333984375	343.7222290039062	901.9124145507812	1592.13134765625	284.0710144042969	891.5130615234375	1657.758178710938	248.2729644775391	1064.191162109375	1646.598999023438	344.8015441894531	710.7266235351562	1581.37841796875	367.0866088867188	806.4008178710938	1601.145751953125	307.6952209472656	808.6587524414062	1654.35546875	230.3497772216797	1635.04345703125	1348.6376953125	332.0351867675781	1679.562377929688	1160.24267578125	379.6654052734375	1693.8466796875	1280.203491210938	171.544677734375	1626.760131835938	1223.806884765625	136.7320556640625	968.5343017578125	1140.27294921875	244.1920471191406	978.214599609375	1498.8291015625	319.8798828125	999.8429565429688	1433.666748046875	271.0897827148438	998.1708984375	1180.30029296875	376.028076171875	520.123046875	1098.652587890625	296.86181640625	641.9491577148438	1091.563720703125	498.9849243164062	58.06826782226562	1073.078979492188	428.1359252929688	294.3325805664062	1072.708984375	670.8252563476562	161.6633758544922	994.6491088867188	660.5689086914062	137.4089813232422	1057.192504882812	566.3494873046875	95.86611175537109	989.0624389648438	491.7657775878906	42.91323471069336	1155.6728515625	140.6168823242188	491.9779052734375	1486.049560546875	255.107177734375	744.089111328125	1499.6953125	-99.22850036621094	54.55818557739258	1514.661254882812	113.04931640625	370.7085571289062	1474.984130859375	120.8244705200195	46.33154678344727	1482.874755859375	67.54001617431641	44.8438720703125	1436.1669921875	10.64866161346436	40.92803955078125	1552.84130859375	-152.3849792480469	60.00751876831055	1446.583862304688	
102	1.01	84.49530029296875	1025.979125976562	1394.6103515625	63.20556640625	1026.173828125	1274.5693359375	77.13631439208984	1064.445922851562	1339.840942382812	358.3234252929688	1247.612060546875	1273.377563476562	60.87114334106445	1233.09765625	1340.57470703125	156.69140625	1489.504150390625	1292.636352539062	342.6436767578125	1363.755004882812	1259.424194335938	95.37561798095703	1332.768188476562	1430.5615234375	124.0078659057617	1462.127685546875	1199.444702148438	179.3885498046875	1435.579345703125	1106.689697265625	105.4519424438477	1309.842041015625	1056.354858398438	63.89347457885742	1098.286987304688	1056.150268554688	49.24578094482422	1091.559814453125	1145.540771484375	127.1897583007812	847.0838012695312	1058.548217773438	33.01727294921875	845.668212890625	1057.023315429688	47.50323104858398	987.77001953125	1047.27734375	107.3532638549805	665.4509887695312	1090.485717773438	38.66087341308594	772.9775390625	1057.681762695312	109.1512451171875	767.5593872070312	1042.552368164062	257.865234375	1473.757690429688	1456.1103515625	249.975830078125	1416.477416992188	1535.353515625	229.8076019287109	1135.551147460938	1624.83203125	196.9765319824219	1117.582275390625	1535.328735351562	352.6833801269531	901.475341796875	1587.251586914062	293.1845703125	890.9160766601562	1653.02734375	257.0469970703125	1063.559448242188	1641.841674804688	354.2135620117188	710.3024291992188	1576.783081054688	376.3334350585938	806.0757446289062	1596.345336914062	317.0652770996094	808.2412109375	1649.72314453125	236.4248962402344	1633.685668945312	1343.492553710938	337.0304565429688	1678.97900390625	1154.698608398438	385.1289978027344	1693.329833984375	1274.451049804688	177.0722045898438	1625.3134765625	1218.869506835938	144.7605285644531	967.2372436523438	1136.283447265625	251.5901031494141	977.369384765625	1494.903198242188	327.3831481933594	998.9803466796875	1429.877563476562	279.121337890625	996.9221801757812	1176.334838867188	383.7037658691406	518.7665405273438	1094.028564453125	304.8511657714844	640.9257202148438	1087.1435546875	504.5289916992188	56.19818496704102	1070.513549804688	434.755615234375	292.5427551269531	1069.34912109375	675.7485961914062	158.9135589599609	989.5881958007812	666.2246704101562	134.8811645507812	1052.286010742188	570.8504638671875	93.55587768554688	985.5160522460938	498.2819519042969	41.33803558349609	1153.265258789062	145.8943328857422	491.8502807617188	1483.619873046875	261.5470886230469	743.2842407226562	1496.818725585938	-98.65419769287109	57.37667465209961	1514.621215820312	117.5565032958984	370.5816040039062	1472.8623046875	120.9234771728516	46.35176086425781	1482.882080078125	67.70035552978516	44.6304817199707	1435.910034179688	11.06724548339844	41.80615234375	1552.2421875	-151.8893737792969	63.49059295654297	1446.7109375	
103	1.02	92.24503326416016	1025.0634765625	1390.126220703125	71.24105834960938	1024.89013671875	1270.097045898438	84.88887786865234	1063.283935546875	1335.388061523438	365.4749450683594	1246.901000976562	1268.028442382812	68.2003173828125	1231.79931640625	1336.18359375	163.177978515625	1488.382568359375	1287.364379882812	349.3911743164062	1362.945556640625	1253.796875	102.790901184082	1331.84375	1425.907958984375	130.2759552001953	1460.6865234375	1194.303833007812	185.3518829345703	1434.034057617188	1101.422119140625	111.4131164550781	1307.94091796875	1051.830200195312	70.08067321777344	1096.551635742188	1052.259765625	56.09617614746094	1089.817504882812	1141.873657226562	132.1236724853516	844.9829711914062	1054.838500976562	38.05693435668945	844.138916015625	1054.190063476562	53.21363830566406	986.0765380859375	1043.811157226562	111.4115295410156	663.5174560546875	1087.248168945312	43.17233657836914	771.4251098632812	1054.791748046875	113.4624176025391	765.5263671875	1039.119018554688	265.0705261230469	1473.201049804688	1450.568359375	257.6415100097656	1416.037109375	1530.003662109375	238.4304504394531	1134.962280273438	1619.838134765625	205.3862915039062	1116.927001953125	1530.491577148438	361.6774597167969	901.2024536132812	1582.090087890625	302.3685913085938	890.5283813476562	1648.049926757812	265.9139404296875	1063.131958007812	1636.830200195312	363.608642578125	710.0650634765625	1571.925659179688	385.5888977050781	805.9124145507812	1591.25927734375	326.4743041992188	808.0244140625	1644.836181640625	242.5748748779297	1632.521606445312	1338.150024414062	342.1143493652344	1678.647705078125	1148.995239257812	390.6808166503906	1693.072265625	1268.535278320312	182.6958312988281	1624.073974609375	1213.736083984375	153.1522521972656	966.1025390625	1132.042846679688	259.1981201171875	976.7608032226562	1490.724731445312	335.1079406738281	998.3566284179688	1425.914916992188	287.4801330566406	995.8493041992188	1172.174194335938	391.3246459960938	517.331298828125	1089.284790039062	313.0214538574219	639.9996948242188	1082.584838867188	509.0001831054688	53.99292755126953	1068.348876953125	440.8650512695312	290.5114135742188	1066.152099609375	679.8563842773438	155.3699645996094	985.0250854492188	670.95703125	131.6009368896484	1047.874755859375	574.4179077148438	90.71582794189453	982.4396362304688	503.609619140625	39.46157455444336	1151.238525390625	151.4644012451172	491.9454956054688	1481.0439453125	268.2487487792969	742.7215576171875	1493.767822265625	-97.98751831054688	60.58628463745117	1514.473754882812	122.2489242553711	370.660888671875	1470.64306640625	121.0345077514648	46.36199951171875	1482.892700195312	67.92794036865234	44.4478645324707	1435.622924804688	11.52752494812012	42.83452224731445	1551.59814453125	-151.2166595458984	67.43038940429688	1446.668334960938	
